<svg width="176" height="200" viewBox="0 0 176 200" fill="none" xmlns="http://www.w3.org/2000/svg">
<rect width="176" height="200" fill="#D9D9D9"/>
<rect y="192" width="176" height="8" fill="#4A4A4A"/>
<rect x="31" y="76" width="28" height="28" fill="#646464"/>
<rect x="24" y="22" width="126" height="40" fill="#2BCAFF"/>
<rect x="24" y="58" width="126" height="4" fill="#21ABD9"/>
<rect x="24" y="22" width="126" height="4" fill="#21ABD9"/>
<rect x="24" y="22" width="4" height="40" fill="#21ABD9"/>
<rect x="146" y="22" width="4" height="40" fill="#21ABD9"/>
<rect x="119" y="115" width="28" height="68" fill="#4870C6"/>
<rect width="176" height="8" fill="#4A4A4A"/>
<rect width="8" height="200" fill="#4A4A4A"/>
<rect x="168" width="8" height="200" fill="#4A4A4A"/>
<rect x="31" y="100" width="28" height="4" fill="#3D3D3D"/>
<rect x="55" y="76" width="4" height="8" fill="#565656"/>
<rect x="51" y="76" width="4" height="4" fill="#565656"/>
<rect x="31" y="76" width="4" height="28" fill="#3D3D3D"/>
<rect x="119" y="76" width="28" height="28" fill="#646464"/>
<rect x="119" y="100" width="28" height="4" fill="#3D3D3D"/>
<rect x="143" y="76" width="4" height="8" fill="#565656"/>
<rect x="139" y="76" width="4" height="4" fill="#565656"/>
<rect x="142" y="26" width="4" height="8" fill="#3CBBE5"/>
<rect x="138" y="26" width="4" height="4" fill="#3CBBE5"/>
<rect x="164" y="8" width="4" height="40" fill="#AEAEAE"/>
<rect x="140" y="8" width="24" height="4" fill="#AEAEAE"/>
<rect x="8" y="152" width="4" height="40" fill="#AEAEAE"/>
<rect x="12" y="188" width="24" height="4" fill="#AEAEAE"/>
<rect x="28" y="34" width="4" height="24" fill="#3CBBE5"/>
<rect x="32" y="54" width="12" height="4" fill="#3CBBE5"/>
<rect x="32" y="50" width="4" height="4" fill="#3CBBE5"/>
<rect x="143" y="115" width="4" height="8" fill="#3D5DA3"/>
<rect x="139" y="115" width="4" height="4" fill="#3D5DA3"/>
<rect x="119" y="76" width="4" height="28" fill="#3D3D3D"/>
<rect x="75" y="116" width="28" height="28" fill="#646464"/>
<rect x="75" y="140" width="28" height="4" fill="#3D3D3D"/>
<rect x="99" y="116" width="4" height="8" fill="#565656"/>
<rect x="95" y="116" width="4" height="4" fill="#565656"/>
<rect x="75" y="116" width="4" height="28" fill="#3D3D3D"/>
<rect x="75" y="155" width="28" height="28" fill="#646464"/>
<rect x="75" y="179" width="28" height="4" fill="#3D3D3D"/>
<rect x="99" y="155" width="4" height="8" fill="#565656"/>
<rect x="95" y="155" width="4" height="4" fill="#565656"/>
<rect x="75" y="155" width="4" height="28" fill="#3D3D3D"/>
<rect x="31" y="155" width="28" height="28" fill="#646464"/>
<rect x="31" y="179" width="28" height="4" fill="#3D3D3D"/>
<rect x="55" y="155" width="4" height="8" fill="#565656"/>
<rect x="51" y="155" width="4" height="4" fill="#565656"/>
<rect x="31" y="155" width="4" height="28" fill="#3D3D3D"/>
<rect x="31" y="115" width="28" height="28" fill="#646464"/>
<rect x="31" y="139" width="28" height="4" fill="#3D3D3D"/>
<rect x="55" y="115" width="4" height="8" fill="#565656"/>
<rect x="51" y="115" width="4" height="4" fill="#565656"/>
<rect x="31" y="115" width="4" height="28" fill="#3D3D3D"/>
<rect x="75" y="76" width="28" height="28" fill="#646464"/>
<rect x="75" y="100" width="28" height="4" fill="#3D3D3D"/>
<rect x="99" y="76" width="4" height="8" fill="#565656"/>
<rect x="95" y="76" width="4" height="4" fill="#565656"/>
<rect x="75" y="76" width="4" height="28" fill="#3D3D3D"/>
<rect x="119" y="179" width="28" height="4" fill="#394F7E"/>
<rect x="119" y="115" width="4" height="68" fill="#394F7E"/>
</svg>
