<svg width="176" height="200" viewBox="0 0 176 200" fill="none" xmlns="http://www.w3.org/2000/svg">
<rect y="24" width="176" height="176" fill="#F8F8F8"/>
<rect x="48" y="8" width="80" height="24" fill="#F8F8F8"/>
<rect x="56" width="64" height="8" fill="black"/>
<rect x="48" y="8" width="8" height="24" fill="black"/>
<rect x="120" y="8" width="8" height="24" fill="black"/>
<rect y="24" width="176" height="8" fill="black"/>
<rect y="192" width="176" height="8" fill="black"/>
<rect y="24" width="8" height="176" fill="black"/>
<rect x="24" y="61" width="8" height="16" fill="black"/>
<rect x="24" y="53" width="32" height="8" fill="black"/>
<rect x="24" y="77" width="32" height="8" fill="black"/>
<rect x="48" y="61" width="8" height="16" fill="black"/>
<rect x="24" y="103" width="8" height="16" fill="black"/>
<rect x="24" y="95" width="32" height="8" fill="black"/>
<rect x="24" y="119" width="32" height="8" fill="black"/>
<rect x="48" y="103" width="8" height="16" fill="black"/>
<rect x="24" y="145" width="8" height="16" fill="black"/>
<rect x="24" y="137" width="32" height="8" fill="black"/>
<rect x="24" y="161" width="32" height="8" fill="black"/>
<rect x="48" y="145" width="8" height="16" fill="black"/>
<rect x="168" y="24" width="8" height="176" fill="black"/>
<rect x="72" y="65" width="80" height="8" fill="black"/>
<rect x="72" y="108" width="80" height="8" fill="black"/>
<rect x="8" y="32" width="16" height="8" fill="#C8C8C8"/>
<rect x="56" y="8" width="64" height="8" fill="#C8C8C8"/>
<rect x="112" y="8" width="8" height="16" fill="#C8C8C8"/>
<rect x="8" y="176" width="8" height="16" fill="#C8C8C8"/>
<rect x="160" y="32" width="8" height="16" fill="#C8C8C8"/>
<rect x="152" y="184" width="16" height="8" fill="#C8C8C8"/>
<rect x="72" y="150" width="80" height="8" fill="black"/>
</svg>
