<svg width="200" height="200" viewBox="0 0 200 200" fill="none" xmlns="http://www.w3.org/2000/svg">
<rect x="8" width="184" height="140" fill="#D9D9D9"/>
<rect x="8" y="132" width="184" height="8" fill="#8D8D8D"/>
<rect x="8" width="184" height="8" fill="#8D8D8D"/>
<rect x="8" width="8" height="140" fill="#8D8D8D"/>
<rect x="184" width="8" height="140" fill="#8D8D8D"/>
<rect x="176" y="8" width="8" height="16" fill="#676767"/>
<rect x="16" y="116" width="8" height="16" fill="#676767"/>
<rect y="140" width="200" height="60" fill="#D9D9D9"/>
<rect x="29" y="19" width="142" height="102" fill="#79B7FF"/>
<rect x="29" y="19" width="142" height="8" fill="#699BD5"/>
<rect x="29" y="113" width="142" height="8" fill="#699BD5"/>
<rect x="29" y="19" width="8" height="102" fill="#699BD5"/>
<rect x="163" y="19" width="8" height="102" fill="#699BD5"/>
<circle cx="161" cy="170" r="10" fill="#5B5B5B"/>
<rect x="29" y="163" width="90" height="15" fill="#4D4D4D"/>
<rect x="192" y="140" width="8" height="60" fill="#8D8D8D"/>
<rect y="140" width="8" height="60" fill="#8D8D8D"/>
<rect y="140" width="200" height="8" fill="#8D8D8D"/>
<rect y="140" width="200" height="8" fill="#8D8D8D"/>
<rect y="192" width="200" height="8" fill="#8D8D8D"/>
<rect x="184" y="176" width="8" height="16" fill="#676767"/>
<rect x="176" y="184" width="8" height="8" fill="#676767"/>
<rect x="8" y="176" width="8" height="16" fill="#676767"/>
<rect x="16" y="184" width="8" height="8" fill="#676767"/>
</svg>
