<svg width="200" height="200" viewBox="0 0 200 200" fill="none" xmlns="http://www.w3.org/2000/svg">
<rect y="4" width="200" height="146" fill="#D9D9D9"/>
<rect x="16" y="23" width="168" height="80" fill="#15CCFF"/>
<rect x="16" y="23" width="168" height="8" fill="#07A1CC"/>
<rect x="16" y="23" width="8" height="80" fill="#07A1CC"/>
<rect x="176" y="23" width="8" height="80" fill="#07A1CC"/>
<rect x="144" y="31" width="32" height="8" fill="#12BEEE"/>
<rect x="168" y="39" width="8" height="12" fill="#12BEEE"/>
<rect x="33" y="87" width="16" height="8" fill="#12BEEE"/>
<rect x="25" y="71" width="8" height="24" fill="#12BEEE"/>
<rect x="17" y="95" width="168" height="8" fill="#07A1CC"/>
<rect x="80" y="150" width="40" height="26" fill="#D9D9D9"/>
<rect x="37" y="176" width="126" height="24" fill="#D9D9D9"/>
<rect x="37" y="176" width="8" height="24" fill="black"/>
<rect x="80" y="150" width="8" height="26" fill="black"/>
<rect x="37" y="192" width="126" height="8" fill="black"/>
<rect x="37" y="176" width="126" height="8" fill="black"/>
<rect y="142" width="200" height="8" fill="black"/>
<rect y="118" width="200" height="8" fill="black"/>
<rect width="200" height="8" fill="black"/>
<rect y="4" width="8" height="146" fill="black"/>
<rect x="192" y="4" width="8" height="146" fill="black"/>
<rect x="155" y="176" width="8" height="24" fill="black"/>
<rect x="112" y="150" width="8" height="26" fill="black"/>
<rect x="85" y="130" width="32" height="8" fill="#444444"/>
<rect x="8" y="8" width="12" height="4" fill="#8E8E8E"/>
<rect x="8" y="126" width="4" height="12" fill="#8E8E8E"/>
<rect x="8" y="126" width="4" height="12" fill="#8E8E8E"/>
<rect x="45" y="184" width="4" height="8" fill="#8E8E8E"/>
<rect x="49" y="184" width="8" height="4" fill="#8E8E8E"/>
<rect x="88" y="150" width="16" height="4" fill="#8E8E8E"/>
<rect x="88" y="150" width="4" height="11" fill="#8E8E8E"/>
</svg>
