<svg width="176" height="200" viewBox="0 0 176 200" fill="none" xmlns="http://www.w3.org/2000/svg">
<rect width="176" height="200" fill="#E2E2E2"/>
<rect width="176" height="8" fill="#989898"/>
<rect y="192" width="176" height="8" fill="#989898"/>
<rect width="8" height="200" fill="#989898"/>
<rect x="168" width="8" height="200" fill="#989898"/>
<rect x="36" y="21" width="24" height="8" fill="#6C6C6C"/>
<rect x="36" y="53" width="24" height="8" fill="#6C6C6C"/>
<rect x="22" y="92" width="52" height="8" fill="#6C6C6C"/>
<rect x="94" y="29" width="60" height="8" fill="#6C6C6C"/>
<rect x="94" y="58" width="60" height="8" fill="#6C6C6C"/>
<rect x="94" y="87" width="60" height="8" fill="#6C6C6C"/>
<rect x="21" y="116" width="133" height="8" fill="#6C6C6C"/>
<rect x="21" y="145" width="133" height="8" fill="#6C6C6C"/>
<rect x="21" y="174" width="133" height="8" fill="#6C6C6C"/>
<rect x="30" y="68" width="36" height="8" fill="#6C6C6C"/>
<rect x="28" y="29" width="8" height="24" fill="#6C6C6C"/>
<rect x="22" y="76" width="8" height="16" fill="#6C6C6C"/>
<rect x="66" y="76" width="8" height="16" fill="#6C6C6C"/>
<rect x="60" y="29" width="8" height="24" fill="#6C6C6C"/>
</svg>
